HIERARCHY
ROOT Hips
{
	OFFSET -338.882294 -555.210510 88.995560
	CHANNELS 6 Xposition Yposition Zposition Zrotation Yrotation Xrotation
	JOINT Spine
	{
		OFFSET 0.000000 2.080078 8.814247
		CHANNELS 6 Xposition Yposition Zposition Zrotation Yrotation Xrotation
		JOINT Spine1
		{
			OFFSET 0.000000 0.000000 8.844139
			CHANNELS 6 Xposition Yposition Zposition Zrotation Yrotation Xrotation
			JOINT Spine2
			{
				OFFSET 0.000000 0.000000 11.682266
				CHANNELS 6 Xposition Yposition Zposition Zrotation Yrotation Xrotation
				JOINT Spine3
				{
					OFFSET 0.000000 0.000000 11.746704
					CHANNELS 6 Xposition Yposition Zposition Zrotation Yrotation Xrotation
					JOINT Neck
					{
						OFFSET 0.000000 0.000000 17.658264
						CHANNELS 6 Xposition Yposition Zposition Zrotation Yrotation Xrotation
						JOINT Neck1
						{
							OFFSET 0.000000 0.000000 5.101517
							CHANNELS 6 Xposition Yposition Zposition Zrotation Yrotation Xrotation
							JOINT Head
							{
								OFFSET 0.000000 0.000000 5.101517
								CHANNELS 6 Xposition Yposition Zposition Zrotation Yrotation Xrotation
								JOINT HeadEnd
								{
									OFFSET 0.000000 0.000000 11.655090
									CHANNELS 6 Xposition Yposition Zposition Zrotation Yrotation Xrotation
									End Site
									{
										OFFSET 0.000000 0.000000 0.100006
									}
								}
							}
						}
					}
					JOINT RightShoulder
					{
						OFFSET -2.625397 0.000000 11.175217
						CHANNELS 6 Xposition Yposition Zposition Zrotation Yrotation Xrotation
						JOINT RightArm
						{
							OFFSET 0.000000 0.000000 10.434723
							CHANNELS 6 Xposition Yposition Zposition Zrotation Yrotation Xrotation
							JOINT RightForeArm
							{
								OFFSET 0.000000 0.000000 29.628418
								CHANNELS 6 Xposition Yposition Zposition Zrotation Yrotation Xrotation
								JOINT RightHand
								{
									OFFSET 0.000000 0.000000 22.857605
									CHANNELS 6 Xposition Yposition Zposition Zrotation Yrotation Xrotation
									JOINT RightHandThumb1
									{
										OFFSET -2.867310 -2.944275 3.959564
										CHANNELS 6 Xposition Yposition Zposition Zrotation Yrotation Xrotation
										JOINT RightHandThumb2
										{
											OFFSET 0.000000 0.000000 3.350403
											CHANNELS 6 Xposition Yposition Zposition Zrotation Yrotation Xrotation
											JOINT RightHandThumb3
											{
												OFFSET 0.000000 0.000000 3.756516
												CHANNELS 6 Xposition Yposition Zposition Zrotation Yrotation Xrotation
												JOINT RightHandThumb4
												{
													OFFSET 0.000000 0.000000 3.147339
													CHANNELS 6 Xposition Yposition Zposition Zrotation Yrotation Xrotation
													End Site
													{
														OFFSET 0.000000 0.000000 0.100006
													}
												}
											}
										}
									}
									JOINT RightHandIndex1
									{
										OFFSET -0.086761 -2.345276 10.030899
										CHANNELS 6 Xposition Yposition Zposition Zrotation Yrotation Xrotation
										JOINT RightHandIndex2
										{
											OFFSET 0.000000 0.000000 4.061096
											CHANNELS 6 Xposition Yposition Zposition Zrotation Yrotation Xrotation
											JOINT RightHandIndex3
											{
												OFFSET 0.000000 0.000000 3.248871
												CHANNELS 6 Xposition Yposition Zposition Zrotation Yrotation Xrotation
												JOINT RightHandIndex4
												{
													OFFSET 0.000000 0.000000 2.639709
													CHANNELS 6 Xposition Yposition Zposition Zrotation Yrotation Xrotation
													End Site
													{
														OFFSET 0.000000 0.000000 0.100006
													}
												}
											}
										}
									}
									JOINT RightHandMiddle1
									{
										OFFSET 0.104095 -0.006775 9.502945
										CHANNELS 6 Xposition Yposition Zposition Zrotation Yrotation Xrotation
										JOINT RightHandMiddle2
										{
											OFFSET 0.000000 0.000000 4.568726
											CHANNELS 6 Xposition Yposition Zposition Zrotation Yrotation Xrotation
											JOINT RightHandMiddle3
											{
												OFFSET 0.000000 0.000000 3.654984
												CHANNELS 6 Xposition Yposition Zposition Zrotation Yrotation Xrotation
												JOINT RightHandMiddle4
												{
													OFFSET 0.000000 0.000000 2.741241
													CHANNELS 6 Xposition Yposition Zposition Zrotation Yrotation Xrotation
													End Site
													{
														OFFSET 0.000000 0.000000 0.100006
													}
												}
											}
										}
									}
									JOINT RightHandRing1
									{
										OFFSET 0.086761 2.267456 8.921707
										CHANNELS 6 Xposition Yposition Zposition Zrotation Yrotation Xrotation
										JOINT RightHandRing2
										{
											OFFSET 0.000000 0.000000 4.061096
											CHANNELS 6 Xposition Yposition Zposition Zrotation Yrotation Xrotation
											JOINT RightHandRing3
											{
												OFFSET 0.000000 0.000000 3.654984
												CHANNELS 6 Xposition Yposition Zposition Zrotation Yrotation Xrotation
												JOINT RightHandRing4
												{
													OFFSET 0.000000 0.000000 2.741241
													CHANNELS 6 Xposition Yposition Zposition Zrotation Yrotation Xrotation
													End Site
													{
														OFFSET 0.000000 0.000000 0.100006
													}
												}
											}
										}
									}
									JOINT RightHandPinky1
									{
										OFFSET -0.173492 4.467224 7.976990
										CHANNELS 6 Xposition Yposition Zposition Zrotation Yrotation Xrotation
										JOINT RightHandPinky2
										{
											OFFSET 0.000000 0.000000 3.350403
											CHANNELS 6 Xposition Yposition Zposition Zrotation Yrotation Xrotation
											JOINT RightHandPinky3
											{
												OFFSET 0.000000 0.000000 2.842758
												CHANNELS 6 Xposition Yposition Zposition Zrotation Yrotation Xrotation
												JOINT RightHandPinky4
												{
													OFFSET 0.000000 0.000000 2.639709
													CHANNELS 6 Xposition Yposition Zposition Zrotation Yrotation Xrotation
													End Site
													{
														OFFSET 0.000000 0.000000 0.100006
													}
												}
											}
										}
									}
									JOINT RightForeArmEnd
									{
										OFFSET 0.000000 0.000000 0.000000
										CHANNELS 6 Xposition Yposition Zposition Zrotation Yrotation Xrotation
										End Site
										{
											OFFSET 0.000000 0.000000 0.100006
										}
									}
								}
								JOINT RightArmEnd
								{
									OFFSET 0.000000 0.000000 0.000000
									CHANNELS 6 Xposition Yposition Zposition Zrotation Yrotation Xrotation
									End Site
									{
										OFFSET 0.000000 0.000000 0.100006
									}
								}
							}
						}
					}
					JOINT LeftShoulder
					{
						OFFSET 2.625397 0.000000 11.175217
						CHANNELS 6 Xposition Yposition Zposition Zrotation Yrotation Xrotation
						JOINT LeftArm
						{
							OFFSET 0.000000 0.000000 10.813629
							CHANNELS 6 Xposition Yposition Zposition Zrotation Yrotation Xrotation
							JOINT LeftForeArm
							{
								OFFSET 0.000000 0.000000 28.724777
								CHANNELS 6 Xposition Yposition Zposition Zrotation Yrotation Xrotation
								JOINT LeftHand
								{
									OFFSET 0.644379 0.328857 25.716171
									CHANNELS 6 Xposition Yposition Zposition Zrotation Yrotation Xrotation
									JOINT LeftHandThumb1
									{
										OFFSET 2.867310 -2.944275 3.959564
										CHANNELS 6 Xposition Yposition Zposition Zrotation Yrotation Xrotation
										JOINT LeftHandThumb2
										{
											OFFSET 0.000000 0.000000 3.350403
											CHANNELS 6 Xposition Yposition Zposition Zrotation Yrotation Xrotation
											JOINT LeftHandThumb3
											{
												OFFSET 0.000000 0.000000 3.756516
												CHANNELS 6 Xposition Yposition Zposition Zrotation Yrotation Xrotation
												JOINT LeftHandThumb4
												{
													OFFSET 0.000000 0.000000 3.100006
													CHANNELS 6 Xposition Yposition Zposition Zrotation Yrotation Xrotation
													End Site
													{
														OFFSET 0.000000 0.000000 0.100006
													}
												}
											}
										}
									}
									JOINT LeftHandIndex1
									{
										OFFSET 0.086761 -2.345276 10.030899
										CHANNELS 6 Xposition Yposition Zposition Zrotation Yrotation Xrotation
										JOINT LeftHandIndex2
										{
											OFFSET 0.000000 0.000000 4.061096
											CHANNELS 6 Xposition Yposition Zposition Zrotation Yrotation Xrotation
											JOINT LeftHandIndex3
											{
												OFFSET 0.000000 0.000000 3.248871
												CHANNELS 6 Xposition Yposition Zposition Zrotation Yrotation Xrotation
												JOINT LeftHandIndex4
												{
													OFFSET 0.000000 0.000000 2.639709
													CHANNELS 6 Xposition Yposition Zposition Zrotation Yrotation Xrotation
													End Site
													{
														OFFSET 0.000000 0.000000 0.100006
													}
												}
											}
										}
									}
									JOINT LeftHandMiddle1
									{
										OFFSET -0.104095 -0.006775 9.502945
										CHANNELS 6 Xposition Yposition Zposition Zrotation Yrotation Xrotation
										JOINT LeftHandMiddle2
										{
											OFFSET 0.000000 0.000000 4.568726
											CHANNELS 6 Xposition Yposition Zposition Zrotation Yrotation Xrotation
											JOINT LeftHandMiddle3
											{
												OFFSET 0.000000 0.000000 3.654984
												CHANNELS 6 Xposition Yposition Zposition Zrotation Yrotation Xrotation
												JOINT LeftHandMiddle4
												{
													OFFSET 0.000000 0.000000 2.741241
													CHANNELS 6 Xposition Yposition Zposition Zrotation Yrotation Xrotation
													End Site
													{
														OFFSET 0.000000 0.000000 0.100006
													}
												}
											}
										}
									}
									JOINT LeftHandRing1
									{
										OFFSET -0.086761 2.267456 8.921707
										CHANNELS 6 Xposition Yposition Zposition Zrotation Yrotation Xrotation
										JOINT LeftHandRing2
										{
											OFFSET 0.000000 0.000000 4.061096
											CHANNELS 6 Xposition Yposition Zposition Zrotation Yrotation Xrotation
											JOINT LeftHandRing3
											{
												OFFSET 0.000000 0.000000 3.654984
												CHANNELS 6 Xposition Yposition Zposition Zrotation Yrotation Xrotation
												JOINT LeftHandRing4
												{
													OFFSET 0.000000 0.000000 2.741241
													CHANNELS 6 Xposition Yposition Zposition Zrotation Yrotation Xrotation
													End Site
													{
														OFFSET 0.000000 0.000000 0.100006
													}
												}
											}
										}
									}
									JOINT LeftHandPinky1
									{
										OFFSET 0.173492 4.467224 7.976990
										CHANNELS 6 Xposition Yposition Zposition Zrotation Yrotation Xrotation
										JOINT LeftHandPinky2
										{
											OFFSET 0.000000 0.000000 3.350403
											CHANNELS 6 Xposition Yposition Zposition Zrotation Yrotation Xrotation
											JOINT LeftHandPinky3
											{
												OFFSET 0.000000 0.000000 2.842758
												CHANNELS 6 Xposition Yposition Zposition Zrotation Yrotation Xrotation
												JOINT LeftHandPinky4
												{
													OFFSET 0.000000 0.000000 2.639709
													CHANNELS 6 Xposition Yposition Zposition Zrotation Yrotation Xrotation
													End Site
													{
														OFFSET 0.000000 0.000000 0.100006
													}
												}
											}
										}
									}
									JOINT LeftForeArmEnd
									{
										OFFSET 0.000000 0.000000 0.000000
										CHANNELS 6 Xposition Yposition Zposition Zrotation Yrotation Xrotation
										End Site
										{
											OFFSET 0.000000 0.000000 0.100006
										}
									}
								}
								JOINT LeftArmEnd
								{
									OFFSET 0.000000 0.000000 0.000000
									CHANNELS 6 Xposition Yposition Zposition Zrotation Yrotation Xrotation
									End Site
									{
										OFFSET 0.000000 0.000000 0.100006
									}
								}
							}
						}
					}
				}
			}
		}
	}
	JOINT RightUpLeg
	{
		OFFSET -11.289948 0.000000 0.000000
		CHANNELS 6 Xposition Yposition Zposition Zrotation Yrotation Xrotation
		JOINT RightLeg
		{
			OFFSET 0.000000 0.000000 -38.200321
			CHANNELS 6 Xposition Yposition Zposition Zrotation Yrotation Xrotation
			JOINT RightFoot
			{
				OFFSET 0.000000 0.000000 -39.900856
				CHANNELS 6 Xposition Yposition Zposition Zrotation Yrotation Xrotation
				JOINT RightToeBase
				{
					OFFSET 0.000000 -15.261658 0.000001
					CHANNELS 6 Xposition Yposition Zposition Zrotation Yrotation Xrotation
					JOINT RightToeBaseEnd
					{
						OFFSET 0.000000 -7.370728 0.000001
						CHANNELS 6 Xposition Yposition Zposition Zrotation Yrotation Xrotation
						End Site
						{
							OFFSET 0.000000 0.000000 0.100000
						}
					}
				}
				JOINT RightLegEnd
				{
					OFFSET 0.000000 0.000000 0.000000
					CHANNELS 6 Xposition Yposition Zposition Zrotation Yrotation Xrotation
					End Site
					{
						OFFSET 0.000000 0.000000 0.100000
					}
				}
			}
			JOINT RightUpLegEnd
			{
				OFFSET 0.000000 0.000000 0.000000
				CHANNELS 6 Xposition Yposition Zposition Zrotation Yrotation Xrotation
				End Site
				{
					OFFSET 0.000000 0.000000 0.099998
				}
			}
		}
	}
	JOINT LeftUpLeg
	{
		OFFSET 11.315674 0.000000 0.000000
		CHANNELS 6 Xposition Yposition Zposition Zrotation Yrotation Xrotation
		JOINT LeftLeg
		{
			OFFSET 0.000000 0.000000 -38.200321
			CHANNELS 6 Xposition Yposition Zposition Zrotation Yrotation Xrotation
			JOINT LeftFoot
			{
				OFFSET 0.000000 0.000000 -39.900856
				CHANNELS 6 Xposition Yposition Zposition Zrotation Yrotation Xrotation
				JOINT LeftToeBase
				{
					OFFSET 0.000000 -15.261658 0.000001
					CHANNELS 6 Xposition Yposition Zposition Zrotation Yrotation Xrotation
					JOINT LeftToeBaseEnd
					{
						OFFSET 0.000000 -7.539978 0.000001
						CHANNELS 6 Xposition Yposition Zposition Zrotation Yrotation Xrotation
						End Site
						{
							OFFSET 0.000000 0.000000 0.100000
						}
					}
				}
				JOINT LeftLegEnd
				{
					OFFSET 0.000000 0.000000 0.000000
					CHANNELS 6 Xposition Yposition Zposition Zrotation Yrotation Xrotation
					End Site
					{
						OFFSET 0.000000 0.000000 0.100000
					}
				}
			}
			JOINT LeftUpLegEnd
			{
				OFFSET 0.000000 0.000000 0.000000
				CHANNELS 6 Xposition Yposition Zposition Zrotation Yrotation Xrotation
				End Site
				{
					OFFSET 0.000000 0.000000 0.099998
				}
			}
		}
	}
}
MOTION
Frames: 2
Frame Time: 0.016667
-8.432312 0.839294 88.316681 -1.425643 3.087311 -9.343566 -0.000009 2.080099 8.814250 -0.497640 -2.453177 6.447270 0.000010 -0.000009 8.844140 -0.259414 0.227145 2.334382 -0.000003 -0.000002 11.682270 -3.530504 -0.731479 8.404602 -0.000007 0.000031 11.746709 -1.413377 -0.503941 6.341988 -0.000008 0.000023 17.658272 -1.643750 4.213486 -3.083742 -0.000014 0.000004 5.101521 -3.243108 0.938439 -7.625039 -0.000007 0.000025 5.101542 -1.386769 1.355313 -15.889315 0.000007 -0.000004 11.655087 0.000001 0.000000 0.000000 -2.625404 -0.000008 11.175231 13.742043 -92.436604 0.227316 -0.000031 -0.000019 10.434704 -51.376376 -41.591669 55.749667 0.000008 -0.000023 29.628447 17.178710 0.228249 24.583210 0.000007 -0.000057 22.857584 12.776189 -2.059025 1.199512 -2.867271 -2.944275 3.959564 31.612175 -21.998093 44.665882 0.000000 0.000000 3.350372 -23.237615 10.940842 -40.050658 0.000027 0.000015 3.756546 -15.331700 9.378585 -27.282168 -0.000009 -0.000001 3.147340 0.000001 -0.000002 0.000000 -0.086777 -2.345281 10.030891 -26.671947 -50.552788 20.325980 -0.000011 0.000013 4.061089 -1.581963 -37.343083 6.155693 -0.000002 0.000020 3.248878 -2.081947 -37.343076 6.155693 0.000015 0.000014 2.639721 -0.000002 0.000001 0.000003 0.104118 -0.006782 9.502930 -18.202505 -50.642520 15.376617 0.000003 0.000012 4.568718 -0.244319 -36.739991 2.241562 0.000027 -0.000016 3.654991 -0.742316 -36.740038 2.240399 0.000035 -0.000003 2.741261 0.000000 -0.000001 -0.000001 0.086792 2.267433 8.921726 -7.038684 -56.574467 12.156602 -0.000010 0.000027 4.061108 0.043575 -39.587964 -2.899056 -0.000025 -0.000020 3.654995 1.043578 -39.587964 -2.899052 0.000006 0.000003 2.741254 -0.000000 0.000002 -0.000000 -0.173462 4.467203 7.976971 8.400393 -59.522462 6.347654 -0.000008 0.000010 3.350418 1.235946 -39.112173 -9.092970 0.000002 0.000035 2.842766 3.235957 -39.112156 -9.092992 -0.000012 -0.000005 2.639700 -0.000000 0.000002 -0.000003 0.000029 0.000017 0.000001 -0.000003 0.000000 -0.000003 0.000007 -0.000002 -0.000011 0.000001 0.000000 -0.000000 2.625397 -0.000012 11.175214 -12.000777 86.733936 -0.291973 0.000006 -0.000036 10.813644 51.775586 49.390136 56.585737 -0.000023 0.000057 28.724785 -3.565835 0.442602 35.221629 0.644315 0.328867 25.716164 1.626499 1.668036 -12.394800 2.867250 -2.944275 3.959610 -32.001154 24.469028 41.286001 0.000015 0.000000 3.350437 28.701869 -10.996360 -48.763951 0.000008 0.000031 3.756485 18.989859 -10.327244 -33.234737 0.000014 -0.000011 3.100004 0.000002 0.000002 0.000003 0.086773 -2.345281 10.030930 2.635702 68.771440 -4.227199 0.000027 -0.000009 4.061119 -3.603329 48.413125 -9.112187 0.000013 -0.000010 3.248856 -4.103323 48.413118 -9.112170 -0.000015 -0.000003 2.639694 -0.000000 -0.000000 -0.000000 -0.104092 -0.006768 9.502972 16.209115 68.454690 11.403511 0.000013 0.000030 4.568737 -1.051577 48.737901 -3.424545 -0.000047 0.000017 3.654999 -1.551574 48.737812 -3.424567 -0.000014 0.000012 2.741227 -0.000001 -0.000002 0.000000 -0.086756 2.267428 8.921722 54.504100 72.291808 54.824880 0.000017 0.000016 4.061100 1.717652 55.690173 5.142190 0.000008 0.000020 3.654968 2.717665 55.690111 5.142209 0.000003 0.000006 2.741261 -0.000001 0.000002 -0.000001 0.173519 4.467178 7.977004 72.325030 66.070995 81.892390 -0.000031 -0.000032 3.350418 7.927456 57.710249 17.914700 0.000031 0.000004 2.842743 9.927481 57.710235 17.914748 -0.000012 -0.000010 2.639703 0.000001 -0.000001 0.000002 0.000010 0.000001 0.000030 -0.000000 -0.000001 0.000001 0.000019 -0.000016 -0.000021 0.000003 -0.000002 0.000001 -11.289999 0.000008 0.000006 -5.004840 -3.502835 6.420377 -0.000046 0.000056 -38.200336 -0.552795 0.077379 7.967918 -0.000024 -0.000047 -39.900864 -1.055633 3.453928 20.865251 0.000000 -15.261747 0.000033 0.596693 0.454948 -20.745590 0.000004 -7.370728 0.000001 0.000000 -0.000000 -0.000000 0.000001 0.000000 0.000002 -0.000000 0.000000 0.000000 -0.000027 -0.000000 -0.000005 0.000000 0.000000 -0.000000 11.315673 -0.000042 0.000006 -13.846914 -0.270732 -0.141313 -0.000010 0.000014 -38.200340 -0.003450 0.001626 25.328913 -0.000032 -0.000001 -39.900856 9.315904 -2.409739 11.997468 -0.000016 -15.261636 0.000021 0.029856 -0.550444 -22.014366 -0.000033 -7.539975 0.000002 -0.000001 0.000000 -0.000000 -0.000028 -0.000058 0.000001 -0.000001 -0.000000 0.000000 -0.000033 -0.000002 0.000003 0.000000 0.000001 0.000002 
-8.465302 0.895996 88.200150 -1.620120 3.206463 -9.465579 0.000012 2.080071 8.814243 -0.492692 -2.633010 6.910729 0.000003 -0.000020 8.844130 -0.276192 0.041478 2.655909 -0.000008 -0.000027 11.682282 -3.109266 -0.652823 8.074582 0.000007 0.000019 11.746706 -1.229706 -0.383951 6.416489 -0.000001 -0.000051 17.658281 -1.593166 5.258974 -4.040699 0.000010 -0.000006 5.101541 -3.761456 1.154545 -7.919663 -0.000011 0.000007 5.101537 -1.499563 1.579936 -16.036490 -0.000001 -0.000002 11.655087 -0.000000 -0.000000 0.000000 -2.625399 -0.000005 11.175206 13.762065 -91.464798 0.282436 -0.000046 -0.000017 10.434696 -51.007074 -44.417728 55.024595 0.000011 -0.000023 29.628443 17.452503 0.281991 28.281954 0.000023 -0.000084 22.857582 16.035040 -1.465683 1.704816 -2.867321 -2.944275 3.959595 31.612144 -21.998043 44.665903 0.000000 -0.000008 3.350418 -23.237598 10.940833 -40.050611 -0.000015 -0.000008 3.756504 -15.331703 9.378561 -27.282180 -0.000006 0.000004 3.147333 -0.000000 -0.000001 -0.000001 -0.086761 -2.345258 10.030899 -26.450874 -50.276176 20.132158 -0.000008 -0.000016 4.061089 -1.553061 -37.129045 6.107956 -0.000033 0.000027 3.248878 -2.053069 -37.129082 6.107962 0.000014 -0.000017 2.639715 0.000002 0.000001 -0.000000 0.104088 -0.006779 9.502922 -18.169411 -50.586297 15.392262 0.000002 -0.000014 4.568710 -0.241092 -36.699935 2.236161 -0.000005 0.000016 3.655001 -0.740846 -36.699949 2.236236 -0.000011 -0.000000 2.741283 0.000000 0.000002 -0.000000 0.086769 2.267435 8.921700 -7.279277 -57.222447 12.557883 0.000006 -0.000007 4.061131 0.073402 -40.036971 -2.945658 -0.000039 0.000030 3.654978 1.073419 -40.036926 -2.945663 -0.000009 0.000015 2.741251 -0.000001 0.000004 -0.000002 -0.173492 4.467268 7.976986 8.477539 -60.835184 6.410627 0.000000 -0.000023 3.350418 1.414844 -39.960899 -9.374003 -0.000004 0.000005 2.842766 3.414863 -39.960893 -9.374031 0.000014 -0.000007 2.639700 -0.000000 0.000002 -0.000001 -0.000007 -0.000001 -0.000011 0.000001 -0.000001 0.000001 -0.000009 -0.000005 -0.000012 -0.000000 -0.000000 -0.000001 2.625402 -0.000079 11.175226 -11.460564 85.462674 -0.231314 -0.000029 -0.000015 10.813637 51.839531 54.797979 55.273545 -0.000019 0.000019 28.724747 -4.124124 0.437575 35.074234 0.644368 0.328978 25.716179 -3.581962 0.909984 -12.074276 2.867292 -2.944290 3.959595 -31.961628 24.277166 41.545575 -0.000008 0.000000 3.350441 28.281903 -11.021066 -48.093971 0.000008 0.000008 3.756512 18.704756 -10.267641 -32.774185 0.000013 -0.000065 3.099997 -0.000000 0.000003 0.000001 0.086765 -2.345294 10.030915 2.339223 67.767839 -4.213323 -0.000008 0.000006 4.061092 -3.434477 47.700457 -8.885159 0.000002 -0.000018 3.248901 -3.934472 47.700436 -8.885163 -0.000011 0.000013 2.639707 -0.000002 -0.000003 -0.000001 -0.104073 -0.006749 9.502937 15.460121 67.604666 10.564556 0.000004 0.000028 4.568760 -0.996502 48.120541 -3.350918 0.000026 0.000015 3.654985 -1.496531 48.120588 -3.350968 -0.000004 0.000002 2.741250 -0.000001 -0.000001 -0.000001 -0.086734 2.267421 8.921722 53.000294 71.960066 52.791987 -0.000006 -0.000002 4.061094 1.650354 55.262972 5.060521 0.000016 0.000010 3.655003 2.650400 55.262958 5.060541 -0.000011 0.000011 2.741251 -0.000001 -0.000000 0.000002 0.173527 4.467178 7.976992 72.742812 66.075817 80.959885 0.000015 -0.000036 3.350395 7.874838 57.623021 17.852448 0.000023 0.000019 2.842766 9.874865 57.623062 17.852470 0.000006 -0.000006 2.639699 0.000000 0.000000 -0.000000 -0.000007 -0.000011 0.000032 0.000001 0.000001 -0.000001 0.000015 0.000000 0.000015 0.000000 -0.000000 -0.000003 -11.289971 -0.000058 -0.000010 -4.274682 -3.780857 5.358975 -0.000037 -0.000054 -38.200336 -0.519363 0.092157 10.061721 -0.000021 -0.000046 -39.900871 -1.714146 3.394278 20.020512 -0.000015 -15.261753 0.000024 0.606641 0.460153 -20.635637 0.000003 -7.370786 0.000001 -0.000001 0.000000 -0.000000 -0.000032 -0.000001 0.000002 0.000000 0.000000 0.000004 -0.000026 -0.000000 -0.000002 0.000000 -0.000000 -0.000000 11.315643 0.000004 0.000010 -13.376403 -0.479098 -0.506376 -0.000045 0.000020 -38.200321 -0.021235 0.007764 26.297540 -0.000024 -0.000039 -39.900864 9.075850 -2.506424 11.604743 -0.000009 -15.261738 0.000034 0.043125 -0.532130 -21.949125 -0.000035 -7.539976 0.000002 -0.000000 -0.000000 -0.000001 -0.000026 0.000003 0.000003 -0.000000 -0.000000 -0.000000 0.000001 -0.000001 -0.000003 0.000000 0.000000 -0.000001 
